<svg xmlns="http://www.w3.org/2000/svg" width="315" height="45.473" viewBox="0 0 315 45.473">
  <g id="Logo" transform="translate(-803 -518)">
    <g id="Group_1" data-name="Group 1" transform="translate(421 1)">
      <path id="Path_1" data-name="Path 1" d="M495.02,555.113a1.876,1.876,0,0,0-1.6.778,3.647,3.647,0,0,0-.566,2.168q0,2.887,2.168,2.89a6.83,6.83,0,0,0,2.207-.457v1.535a6.11,6.11,0,0,1-2.375.446,3.633,3.633,0,0,1-2.887-1.145,4.845,4.845,0,0,1-1-3.281,5.352,5.352,0,0,1,.488-2.363,3.564,3.564,0,0,1,1.41-1.555,4.186,4.186,0,0,1,2.153-.539,5.823,5.823,0,0,1,2.531.609l-.59,1.489a9.682,9.682,0,0,0-.977-.4,2.948,2.948,0,0,0-.964-.172Zm0,0" fill="#f9423a"/>
      <path id="Path_2" data-name="Path 2" d="M521.645,562.356l-.625-2.059h-3.149l-.629,2.059H515.27l3.05-8.676h2.239l3.062,8.676Zm-1.063-3.594c-.578-1.864-.906-2.918-.977-3.164s-.125-.438-.156-.578q-.2.754-1.117,3.742Zm0,0" fill="#f9423a"/>
      <path id="Path_3" data-name="Path 3" d="M544.336,557.781h.6a2,2,0,0,0,1.266-.336,1.166,1.166,0,0,0,.422-.972,1.191,1.191,0,0,0-.352-.95,1.637,1.637,0,0,0-1.1-.308h-.832Zm4.137-1.371a2.636,2.636,0,0,1-.871,2.133,3.735,3.735,0,0,1-2.481.738h-.785v3.075H542.5v-8.641h2.762a3.682,3.682,0,0,1,2.39.676,2.479,2.479,0,0,1,.817,2.019Zm0,0" fill="#f9423a"/>
      <rect id="Rectangle_1" data-name="Rectangle 1" width="1.832" height="8.641" transform="translate(564.051 553.715)" fill="#f9423a"/>
      <path id="Path_4" data-name="Path 4" d="M585.3,562.356h-1.832v-7.118h-2.348v-1.523h6.523v1.523H585.3Zm0,0" fill="#f9423a"/>
      <path id="Path_5" data-name="Path 5" d="M609.215,562.356l-.629-2.059h-3.149l-.625,2.059h-1.976l3.051-8.676h2.238l3.062,8.676Zm-1.067-3.594q-.867-2.8-.976-3.164c-.074-.242-.125-.438-.156-.578q-.193.754-1.118,3.742Zm0,0" fill="#f9423a"/>
      <path id="Path_6" data-name="Path 6" d="M629.625,562.356v-8.641h1.828v7.125h3.508v1.516Zm0,0" fill="#f9423a"/>
      <path id="Path_7" data-name="Path 7" d="M481.926,517h3.449l7.98,25.414,8-25.414h3.293l7.957,25.414,8-25.414h3.469L514.3,547.371h-3.336L503,522.6l-7.981,24.769h-3.359Zm0,0" fill="#f2c75c"/>
      <path id="Path_8" data-name="Path 8" d="M524.1,547.371,536.223,517h3.269l12.074,30.371h-3.515l-3.645-9.473h-13.1l-3.645,9.473Zm8.426-12.6h10.653l-5.317-13.9Zm0,0" fill="#f2c75c"/>
      <path id="Path_9" data-name="Path 9" d="M550.074,517h3.957l9.008,13.25,8.98-13.25h3.958l-11.293,16.43v13.941h-3.27V533.43Zm0,0" fill="#f2c75c"/>
      <path id="Path_10" data-name="Path 10" d="M580.691,547.371V517h3.559l10.426,15.43L605.148,517h3.559v30.371h-3.289V522.379l-10.742,15.476-10.692-15.476v24.992Zm0,0" fill="#f2c75c"/>
      <path id="Path_11" data-name="Path 11" d="M613.687,547.371,625.8,517h3.269l12.074,30.371h-3.515l-3.645-9.473h-13.1l-3.645,9.473Zm8.426-12.6h10.653l-5.317-13.9Zm0,0" fill="#f2c75c"/>
      <path id="Path_12" data-name="Path 12" d="M645.926,547.371V517H657.09q4.956,0,7.625,2.258a8.117,8.117,0,0,1,2.668,6.57,9.747,9.747,0,0,1-.621,3.555,8.2,8.2,0,0,1-1.414,2.492,7.981,7.981,0,0,1-1.879,1.547,8.859,8.859,0,0,1-1.778.867c-.461.141-.89.254-1.289.344l8.336,12.738h-3.867l-7.914-12.25h-7.738v12.25Zm3.293-15.34h7.691a11.865,11.865,0,0,0,3.793-.523,4.405,4.405,0,0,0,2.211-1.457,5.559,5.559,0,0,0,.934-1.844,9.489,9.489,0,0,0,0-4.293,5.559,5.559,0,0,0-.934-1.844,4.406,4.406,0,0,0-2.211-1.457,11.865,11.865,0,0,0-3.793-.523h-7.691Zm0,0" fill="#f2c75c"/>
      <path id="Path_13" data-name="Path 13" d="M674.187,547.371V517h3.29v15.652L691.531,517h4.422l-13.027,14.207L697,547.371h-4.313L680.793,533.52l-3.316,3.648v10.2Zm0,0" fill="#f2c75c"/>
      <path id="Path_14" data-name="Path 14" d="M453.289,524.707a7.865,7.865,0,0,1-7.832,7.836,7.772,7.772,0,1,1,7.832-7.836Zm0,0" fill="#f2c75c" fill-rule="evenodd"/>
      <path id="Path_15" data-name="Path 15" d="M412.059,545.773l-8.223,16.7L382,518.156h15.8Zm0,0" fill="#f9423a" fill-rule="evenodd"/>
      <path id="Path_16" data-name="Path 16" d="M430.043,562.473l8.09-16.7-14.258-27.617H408.2Zm0,0" fill="#f2c75c" fill-rule="evenodd"/>
      <rect id="Rectangle_2" data-name="Rectangle 2" width="1.023" height="45.473" transform="translate(464.746 517)" fill="#f2c75c"/>
    </g>
  </g>
</svg>
