<?xml version="1.0" encoding="utf-8"?>
<!-- Generator: Adobe Illustrator 24.1.1, SVG Export Plug-In . SVG Version: 6.00 Build 0)  -->
<svg version="1.1" id="Layer_1" xmlns="http://www.w3.org/2000/svg" xmlns:xlink="http://www.w3.org/1999/xlink" x="0px" y="0px"
	 viewBox="0 0 51 34" style="enable-background:new 0 0 51 34;" xml:space="preserve">
<style type="text/css">
	.st0{fill:#C7CED3;}
</style>
<g id="Page-1">
	<g id="_x35_275_x5F_BigBreak-Software-podcast-page-_x5F_V3" transform="translate(-536.000000, -679.000000)">
		<g id="Group-13" transform="translate(302.000000, 679.000000)">
			<g id="youtube-3" transform="translate(234.670000, 0.000000)">
				<path id="Shape" class="st0" d="M25.7,34l-10.1-0.2c-3.3-0.1-6.6,0.1-9.8-0.6c-4.9-1-5.2-5.9-5.6-10C-0.2,17.5,0,11.6,0.9,5.9
					c0.5-3.2,2.6-5.1,5.9-5.3c10.9-0.8,21.9-0.7,32.8-0.3c1.1,0,2.3,0.2,3.4,0.4c5.6,1,5.7,6.5,6.1,11.2c0.4,4.7,0.2,9.4-0.5,14.1
					C48,29.8,47,33,42.5,33.3C36.9,33.8,31.4,34.1,25.7,34C25.8,34,25.7,34,25.7,34z M19.8,24.2c4.2-2.4,8.4-4.8,12.6-7.2
					c-4.2-2.4-8.4-4.8-12.6-7.2V24.2z"/>
			</g>
		</g>
	</g>
</g>
</svg>
