<?xml version="1.0" encoding="utf-8"?>
<!-- Generator: Adobe Illustrator 24.1.1, SVG Export Plug-In . SVG Version: 6.00 Build 0)  -->
<svg version="1.1" id="Layer_1" xmlns="http://www.w3.org/2000/svg" xmlns:xlink="http://www.w3.org/1999/xlink" x="0px" y="0px"
	 viewBox="0 0 36 35" style="enable-background:new 0 0 36 35;" xml:space="preserve">
<style type="text/css">
	.st0{fill:#55A6D8;}
</style>
<g id="Page-1">
	<g id="_x35_275_x5F_BigBreak-Software-podcast-page-_x5F_V3" transform="translate(-1102.000000, -679.000000)">
		<g id="Group-13" transform="translate(302.000000, 679.000000)">
			<g id="google-icon">
				<g transform="translate(800.680000, 0.000000)">
					<path id="Path" class="st0" d="M34.2,17.8c0-1.4-0.1-2.5-0.4-3.6H17.4v6.5h9.6c-0.2,1.6-1.2,4-3.6,5.7l0,0.2l5.2,4l0.4,0
						C32.3,27.6,34.2,23.1,34.2,17.8"/>
					<path id="Path_1_" class="st0" d="M17.4,34.9c4.7,0,8.7-1.6,11.6-4.2l-5.5-4.3c-1.5,1-3.4,1.7-6,1.7c-4.6,0-8.5-3-9.9-7.2
						l-0.2,0l-5.4,4.2l-0.1,0.2C4.7,31,10.6,34.9,17.4,34.9"/>
					<path id="Path_2_" class="st0" d="M7.5,20.9c-0.4-1.1-0.6-2.2-0.6-3.4c0-1.2,0.2-2.4,0.6-3.4l0-0.2L2,9.5L1.9,9.6
						C0.7,12,0,14.6,0,17.4s0.7,5.5,1.9,7.8L7.5,20.9"/>
					<path id="Path_3_" class="st0" d="M17.4,6.7c3.3,0,5.5,1.4,6.7,2.6l4.9-4.8c-3-2.8-7-4.5-11.7-4.5C10.6,0,4.7,3.9,1.9,9.6
						L7.5,14C8.9,9.8,12.8,6.7,17.4,6.7"/>
				</g>
			</g>
		</g>
	</g>
</g>
</svg>
