<?xml version="1.0" encoding="utf-8"?>
<!-- Generator: Adobe Illustrator 24.1.1, SVG Export Plug-In . SVG Version: 6.00 Build 0)  -->
<svg version="1.1" id="Layer_1" xmlns="http://www.w3.org/2000/svg" xmlns:xlink="http://www.w3.org/1999/xlink" x="0px" y="0px"
	 viewBox="0 0 36 35" style="enable-background:new 0 0 36 35;" xml:space="preserve">
<style type="text/css">
	.st0{fill:#55A6D8;}
</style>
<g id="Page-1">
	<g id="_x35_275_x5F_BigBreak-Software-podcast-page-_x5F_V3" transform="translate(-917.000000, -679.000000)">
		<g id="Group-13" transform="translate(302.000000, 679.000000)">
			<g id="spotify-2" transform="translate(615.010000, 0.000000)">
				<path id="Shape" class="st0" d="M17.4,0C7.8,0,0,7.8,0,17.4s7.8,17.4,17.4,17.4S34.8,27,34.8,17.4C34.8,7.8,27,0,17.4,0z
					 M25.4,25.1c-0.3,0.5-1,0.7-1.5,0.4c-4.1-2.5-9.2-3.1-15.3-1.7C8,23.9,7.4,23.5,7.3,23c-0.1-0.6,0.2-1.2,0.8-1.3
					c6.6-1.5,12.3-0.9,16.9,1.9C25.5,23.9,25.7,24.6,25.4,25.1L25.4,25.1z M27.5,20.4c-0.4,0.6-1.2,0.8-1.9,0.4
					c-4.7-2.9-11.8-3.7-17.3-2c-0.7,0.2-1.5-0.2-1.7-0.9c-0.2-0.7,0.2-1.5,0.9-1.7c6.3-1.9,14.2-1,19.5,2.3
					C27.7,18.9,27.9,19.7,27.5,20.4z M27.7,15.4c-5.6-3.3-14.9-3.6-20.2-2c-0.9,0.3-1.8-0.2-2-1.1c-0.3-0.9,0.2-1.8,1.1-2
					c6.1-1.9,16.4-1.5,22.8,2.3c0.8,0.5,1,1.5,0.6,2.2C29.5,15.6,28.5,15.9,27.7,15.4z"/>
			</g>
		</g>
	</g>
</g>
</svg>
