<?xml version="1.0" encoding="UTF-8"?>
<svg width="36px" height="35px" viewBox="0 0 36 35" version="1.1" xmlns="http://www.w3.org/2000/svg" xmlns:xlink="http://www.w3.org/1999/xlink">
    <title>spotify-2</title>
    <g id="Page-1" stroke="none" stroke-width="1" fill="none" fill-rule="evenodd" opacity="0.200000003">
        <g id="5275_BigBreak-Software-podcast-page-_V3" transform="translate(-917.000000, -679.000000)" fill="#333333" fill-rule="nonzero">
            <g id="Group-13" transform="translate(302.000000, 679.000000)">
                <g id="spotify-2" transform="translate(615.010000, 0.000000)">
                    <path d="M17.3939394,0 C7.78721504,0 0,7.78721504 0,17.3939394 C0,27.0006638 7.78721504,34.7878788 17.3939394,34.7878788 C27.0006638,34.7878788 34.7878788,27.0006638 34.7878788,17.3939394 C34.7878788,7.78840193 27.0006638,0.00118689453 17.3939394,0 Z M25.3710576,25.0862029 C25.0589043,25.5989413 24.3906827,25.7591721 23.880318,25.4470188 C19.7962139,22.9509796 14.6545868,22.3872047 8.60023779,23.7699368 C8.01628568,23.9040559 7.43470736,23.5384924 7.30177517,22.9545403 C7.16765609,22.3705882 7.53203271,21.7890099 8.11717172,21.6560777 C14.742417,20.1427871 20.4264549,20.7943922 25.0114285,23.5954633 C25.5217932,23.9099904 25.6843977,24.5758382 25.3710576,25.0862029 L25.3710576,25.0862029 Z M27.4991595,20.3516806 C27.1062974,20.9902298 26.2707236,21.1896281 25.6333612,20.7979529 C20.9593706,17.9244813 13.830882,17.0924682 8.30114037,18.7707371 C7.58425607,18.9879388 6.82701736,18.5832077 6.60862876,17.8675103 C6.39261396,17.150626 6.797345,16.3945742 7.5130424,16.1761856 C13.8296951,14.2593509 21.6833762,15.1875025 27.0517002,18.4870693 C27.6902495,18.8799314 27.8920215,19.7143182 27.4991595,20.3516806 Z M27.6819412,15.4189469 C22.0750514,12.0897077 12.8267692,11.7834889 7.47387488,13.4071607 C6.61456324,13.6682775 5.70540202,13.1828376 5.44547212,12.3235259 C5.18554222,11.4642143 5.66979519,10.5550531 6.53029373,10.2939363 C12.6748467,8.42932498 22.8880742,8.78895402 29.3424067,12.6202496 C30.115075,13.0795778 30.3690704,14.0777561 29.9109291,14.8492375 C29.4539748,15.6230927 28.4534227,15.8782751 27.6819412,15.4189469 Z" id="Shape"></path>
                </g>
            </g>
        </g>
    </g>
</svg>