<svg xmlns="http://www.w3.org/2000/svg" width="53.125" height="68" viewBox="0 0 53.125 68">
  <g id="agreement-svgrepo-com" transform="translate(-56)">
    <path id="Path_3" data-name="Path 3" d="M103.813,4.25H93.185a5.308,5.308,0,0,0-4.247-2.125H86.229a4.226,4.226,0,0,0-7.334,0H76.188A5.308,5.308,0,0,0,71.94,4.25H61.313A5.319,5.319,0,0,0,56,9.563V62.688A5.319,5.319,0,0,0,61.313,68h42.5a5.319,5.319,0,0,0,5.313-5.312V9.563A5.319,5.319,0,0,0,103.813,4.25ZM73,7.438A3.191,3.191,0,0,1,76.188,4.25H79.57a1.063,1.063,0,0,0,1-.707,2.107,2.107,0,0,1,3.982,0,1.063,1.063,0,0,0,1,.707h3.383a3.191,3.191,0,0,1,3.188,3.188v3.188H73Zm34,55.25a3.191,3.191,0,0,1-3.187,3.188h-42.5a3.191,3.191,0,0,1-3.187-3.187V9.563a3.191,3.191,0,0,1,3.188-3.187h9.669a5.317,5.317,0,0,0-.107,1.063v4.25a1.063,1.063,0,0,0,1.063,1.063h21.25a1.063,1.063,0,0,0,1.063-1.062V7.438a5.316,5.316,0,0,0-.107-1.062h9.669A3.191,3.191,0,0,1,107,9.563Z" fill="#f9423a"/>
    <path id="Path_4" data-name="Path 4" d="M131.563,64h-6.375a1.063,1.063,0,0,0,0,2.125H130.5v37.188H119.875a3.191,3.191,0,0,0-3.187,3.188v6.375a1.063,1.063,0,0,0,2.125,0V106.5a1.064,1.064,0,0,1,1.063-1.062H129L117.31,117.125H90.125v-51h5.313a1.063,1.063,0,0,0,0-2.125H89.063A1.063,1.063,0,0,0,88,65.063v53.125a1.063,1.063,0,0,0,1.063,1.063h28.691c.034,0,.067,0,.1-.005l.051-.007.052-.008.058-.014.043-.011.057-.02.041-.015.054-.025.041-.02c.018-.01.036-.021.053-.031l.036-.022c.021-.014.042-.03.062-.045l.022-.016a1.025,1.025,0,0,0,.082-.074l13.81-13.81,0-.005a1.077,1.077,0,0,0,.087-.1l.022-.029a1.07,1.07,0,0,0,.073-.116l.006-.013a1.063,1.063,0,0,0,.051-.117l.01-.028a1.063,1.063,0,0,0,.037-.135v-.008a1.063,1.063,0,0,0,.016-.128c0-.013,0-.025,0-.038s0-.023,0-.035V65.063A1.062,1.062,0,0,0,131.563,64Z" transform="translate(-27.75 -55.5)" fill="#f9423a"/>
    <path id="Path_5" data-name="Path 5" d="M249.063,32a1.061,1.061,0,1,0,.752.311A1.069,1.069,0,0,0,249.063,32Z" transform="translate(-166.5 -27.75)" fill="#f9423a"/>
    <path id="Path_6" data-name="Path 6" d="M281.063,138.125h10.625a1.063,1.063,0,0,0,0-2.125H281.063a1.063,1.063,0,0,0,0,2.125Z" transform="translate(-194.25 -117.938)" fill="#f9423a"/>
    <path id="Path_7" data-name="Path 7" d="M217.063,170.125h19.125a1.063,1.063,0,0,0,0-2.125H217.063a1.063,1.063,0,0,0,0,2.125Z" transform="translate(-138.75 -145.688)" fill="#f9423a"/>
    <path id="Path_8" data-name="Path 8" d="M166.813,232h-29.75a1.063,1.063,0,0,0,0,2.125h29.75a1.063,1.063,0,0,0,0-2.125Z" transform="translate(-69.375 -201.188)" fill="#f9423a"/>
    <path id="Path_9" data-name="Path 9" d="M166.813,264h-29.75a1.063,1.063,0,0,0,0,2.125h29.75a1.063,1.063,0,0,0,0-2.125Z" transform="translate(-69.375 -228.938)" fill="#f9423a"/>
    <path id="Path_10" data-name="Path 10" d="M166.813,296h-29.75a1.063,1.063,0,0,0,0,2.125h29.75a1.063,1.063,0,0,0,0-2.125Z" transform="translate(-69.375 -256.688)" fill="#f9423a"/>
    <path id="Path_11" data-name="Path 11" d="M167.875,329.063A1.063,1.063,0,0,0,166.813,328h-29.75a1.063,1.063,0,0,0,0,2.125h29.75A1.063,1.063,0,0,0,167.875,329.063Z" transform="translate(-69.375 -284.438)" fill="#f9423a"/>
    <path id="Path_12" data-name="Path 12" d="M217.563,360h-8.5a1.063,1.063,0,0,0,0,2.125h8.5a1.063,1.063,0,0,0,0-2.125Z" transform="translate(-131.813 -312.188)" fill="#f9423a"/>
    <path id="Path_13" data-name="Path 13" d="M217.563,392h-8.5a1.063,1.063,0,0,0,0,2.125h8.5a1.063,1.063,0,0,0,0-2.125Z" transform="translate(-131.813 -339.938)" fill="#f9423a"/>
    <path id="Path_14" data-name="Path 14" d="M136,137.063a1.063,1.063,0,0,0,1.063,1.063h5.313a1.063,1.063,0,0,0,0-2.125h-5.312A1.063,1.063,0,0,0,136,137.063Z" transform="translate(-69.375 -117.938)" fill="#f9423a"/>
    <path id="Path_15" data-name="Path 15" d="M120,364.781A4.781,4.781,0,1,0,124.781,360,4.787,4.787,0,0,0,120,364.781Zm7.438,0a2.656,2.656,0,1,1-2.656-2.656A2.659,2.659,0,0,1,127.438,364.781Z" transform="translate(-55.5 -312.188)" fill="#f9423a"/>
  </g>
</svg>
