<svg xmlns="http://www.w3.org/2000/svg" width="50.596" height="68" viewBox="0 0 50.596 68">
  <g id="application-form-svgrepo-com" transform="translate(-3.326)">
    <g id="Group_8" data-name="Group 8" transform="translate(3.326 0)">
      <path id="Path_19" data-name="Path 19" d="M51.693,0H5.56A2.231,2.231,0,0,0,3.326,2.231V65.766A2.231,2.231,0,0,0,5.557,68H39.782a2.23,2.23,0,0,0,1.491-.57l11.9-10.652a2.237,2.237,0,0,0,.746-1.664V2.231A2.231,2.231,0,0,0,51.693,0ZM49.462,53.863H39.076v9.543l-.139.123H7.791V4.465H49.459v49.4Z" transform="translate(-3.326 0)" fill="#f9423a"/>
      <path id="Path_20" data-name="Path 20" d="M22.291,15.173H10.946A1.166,1.166,0,0,0,9.779,16.34V27.685a1.164,1.164,0,0,0,1.167,1.167H22.291a1.168,1.168,0,0,0,1.167-1.167V16.342A1.167,1.167,0,0,0,22.291,15.173ZM21.13,26.521H12.115V17.506H21.13Z" transform="translate(7.102 24.519)" fill="#f9423a"/>
      <path id="Path_21" data-name="Path 21" d="M23.224,9.257V9.174a1.031,1.031,0,0,0-1.031-1.031H10.866A1.031,1.031,0,0,0,9.835,9.174V20.5a1.032,1.032,0,0,0,1.031,1.033H22.2A1.032,1.032,0,0,0,23.226,20.5V16.462l-1.821,1.821a2.275,2.275,0,0,1-.241.162v1.028H11.9V10.2h9.268v1.114Z" transform="translate(7.192 13.159)" fill="#f9423a"/>
      <path id="Path_22" data-name="Path 22" d="M22.27,8.588,16.526,14.33l-2.2-2.2a1.516,1.516,0,1,0-2.145,2.142l3.273,3.275a1.516,1.516,0,0,0,2.145,0l6.815-6.817A1.516,1.516,0,1,0,22.27,8.588Z" transform="translate(10.267 13.158)" fill="#f9423a"/>
      <rect id="Rectangle_37" data-name="Rectangle 37" width="29.783" height="3.11" transform="translate(10.409 10.88)" fill="#f9423a"/>
    </g>
  </g>
</svg>
