<svg xmlns="http://www.w3.org/2000/svg" width="67.16" height="68" viewBox="0 0 67.16 68">
  <g id="bank-svgrepo-com" transform="translate(-1.329 0)">
    <path id="Path_16" data-name="Path 16" d="M9.954,28.106h1.53a1.877,1.877,0,0,0-.017.244V58.141h-1.04a1.9,1.9,0,0,0,0,3.792H66.67a1.9,1.9,0,1,0,0-3.792H65.63V28.349a1.878,1.878,0,0,0-.017-.244h1.53a3.3,3.3,0,0,0,1.964-5.958L39.676.372a1.9,1.9,0,0,0-2.255,0L7.989,22.148a3.3,3.3,0,0,0,1.965,5.958Zm30.3,30.035h-3.4V28.349a1.877,1.877,0,0,0-.017-.244h3.439a1.877,1.877,0,0,0-.017.244V58.141Zm-14.392,0h-3.4V28.349a1.877,1.877,0,0,0-.017-.244h3.439a1.877,1.877,0,0,0-.017.244Zm-10.6,0v-27.9h3.4v27.9Zm14.392,0v-27.9h3.4v27.9Zm14.392,0v-27.9h3.4v27.9Zm14.393,0v-27.9h3.4v27.9ZM54.643,28.349V58.141h-3.4V28.349a1.878,1.878,0,0,0-.017-.244h3.439A1.877,1.877,0,0,0,54.643,28.349ZM38.549,4.255,65.66,24.314H11.437L38.549,4.255Z" transform="translate(-3.64 0)" fill="#f9423a"/>
    <path id="Path_17" data-name="Path 17" d="M66.593,203.2H3.225a1.9,1.9,0,0,0,0,3.792H66.593a1.9,1.9,0,1,0,0-3.792Z" transform="translate(0 -138.995)" fill="#f9423a"/>
  </g>
</svg>
