<svg xmlns="http://www.w3.org/2000/svg" width="83.265" height="68" viewBox="0 0 83.265 68">
  <g id="spreadsheet-svgrepo-com" transform="translate(-16 -64)">
    <path id="Path_18" data-name="Path 18" d="M16,64v68H99.265V64Zm77.714,62.449H21.551v-56.9H93.714Z" fill="#f9423a"/>
    <rect id="Rectangle_25" data-name="Rectangle 25" width="15.265" height="5.551" transform="translate(28.49 76.49)" fill="#f9423a"/>
    <rect id="Rectangle_26" data-name="Rectangle 26" width="15.265" height="5.551" transform="translate(28.49 88.98)" fill="#f9423a"/>
    <rect id="Rectangle_27" data-name="Rectangle 27" width="15.265" height="5.551" transform="translate(28.49 101.469)" fill="#f9423a"/>
    <rect id="Rectangle_28" data-name="Rectangle 28" width="15.265" height="5.551" transform="translate(28.49 113.959)" fill="#f9423a"/>
    <rect id="Rectangle_29" data-name="Rectangle 29" width="23.592" height="5.551" transform="translate(63.184 76.49)" fill="#f9423a"/>
    <rect id="Rectangle_30" data-name="Rectangle 30" width="23.592" height="5.551" transform="translate(63.184 88.98)" fill="#f9423a"/>
    <rect id="Rectangle_31" data-name="Rectangle 31" width="23.592" height="5.551" transform="translate(63.184 101.469)" fill="#f9423a"/>
    <rect id="Rectangle_32" data-name="Rectangle 32" width="23.592" height="5.551" transform="translate(63.184 113.959)" fill="#f9423a"/>
    <rect id="Rectangle_33" data-name="Rectangle 33" width="5.551" height="5.551" transform="translate(50.694 76.49)" fill="#f9423a"/>
    <rect id="Rectangle_34" data-name="Rectangle 34" width="5.551" height="5.551" transform="translate(50.694 88.98)" fill="#f9423a"/>
    <rect id="Rectangle_35" data-name="Rectangle 35" width="5.551" height="5.551" transform="translate(50.694 101.469)" fill="#f9423a"/>
    <rect id="Rectangle_36" data-name="Rectangle 36" width="5.551" height="5.551" transform="translate(50.694 113.959)" fill="#f9423a"/>
  </g>
</svg>
