<svg xmlns="http://www.w3.org/2000/svg" width="93.505" height="93.498" viewBox="0 0 93.505 93.498">
  <g id="Page-1" transform="translate(0 -0.005)">
    <g id="_027---AR-360-Degree-View" data-name="027---AR-360-Degree-View" transform="translate(0 0.005)">
      <path id="Shape" d="M38.287,12.038l-5.495,2.955L27.3,12.032a1.559,1.559,0,0,0-1.477,2.746L31.234,17.7v3.74a1.558,1.558,0,1,0,3.117,0V17.7l5.414-2.91a1.559,1.559,0,1,0-1.477-2.746Z" transform="translate(13.96 6.608)" fill="#fff"/>
      <path id="Shape-2" data-name="Shape" d="M59.636,34.283V12.465a1.558,1.558,0,0,0-.759-1.337c-.02-.012-.044-.017-.065-.028L38.552.191a1.558,1.558,0,0,0-1.477,0L16.815,11.1c-.022.011-.045.016-.065.028A1.558,1.558,0,0,0,16,12.465V34.283a1.558,1.558,0,0,0,.82,1.371L37.079,46.563a1.558,1.558,0,0,0,1.477,0L58.816,35.654A1.558,1.558,0,0,0,59.636,34.283Zm-3.117-.935L39.376,42.583V37.4a1.558,1.558,0,1,0-3.117,0v5.183L19.117,33.348V15.072l3.937,2.116a1.559,1.559,0,0,0,1.477-2.746l-3.683-1.978,16.97-9.139,16.97,9.139L51.1,14.444a1.559,1.559,0,1,0,1.477,2.746l3.937-2.118Z" transform="translate(8.935 -0.005)" fill="#fff"/>
      <path id="Shape-3" data-name="Shape" d="M77.453,28.053l6.7-2a1.558,1.558,0,1,0-.891-2.986L72.809,26.186a1.558,1.558,0,0,0-1.047,1.939l3.117,10.454a1.558,1.558,0,0,0,1.493,1.113,1.588,1.588,0,0,0,.446-.064,1.558,1.558,0,0,0,1.047-1.94l-2.087-7c9.3,5.11,14.61,12.325,14.61,20,0,14.813-19.575,26.864-43.636,26.864S3.117,65.5,3.117,50.684c0-7.655,5.314-14.878,14.618-19.99L15.65,37.687a1.558,1.558,0,0,0,1.047,1.94,1.588,1.588,0,0,0,.446.064,1.558,1.558,0,0,0,1.493-1.113l3.117-10.454a1.558,1.558,0,0,0-1.047-1.939L10.251,23.069a1.558,1.558,0,0,0-.891,2.986l6.7,2C5.838,33.727,0,41.9,0,50.684,0,67.216,20.973,80.665,46.752,80.665S93.5,67.216,93.5,50.684c0-8.8-5.827-16.959-16.052-22.631Z" transform="translate(0 12.833)" fill="#fff"/>
      <path id="Shape-4" data-name="Shape" d="M23.151,33a6.224,6.224,0,0,0-5.922,4.264,1.56,1.56,0,0,0,2.961.983,3.117,3.117,0,1,1,2.961,4.1,1.558,1.558,0,1,0,0,3.117,3.117,3.117,0,1,1-2.961,4.1,1.56,1.56,0,0,0-2.961.983,6.234,6.234,0,1,0,10.041-6.645A6.234,6.234,0,0,0,23.151,33Z" transform="translate(9.576 18.421)" fill="#fff"/>
      <path id="Shape-5" data-name="Shape" d="M32.237,54.825a6.665,6.665,0,0,0,6.234-7.013A6.665,6.665,0,0,0,32.237,40.8a5.567,5.567,0,0,0-2.068.427,8.571,8.571,0,0,1,4.264-5.239,1.558,1.558,0,1,0-1.275-2.843C26.085,36.319,26,46.6,26,47.033a1.523,1.523,0,0,0,.048.24c-.012.181-.048.355-.048.539a6.665,6.665,0,0,0,6.234,7.013Zm0-10.909a3.584,3.584,0,0,1,3.117,3.9,3.584,3.584,0,0,1-3.117,3.9,3.584,3.584,0,0,1-3.117-3.9A3.584,3.584,0,0,1,32.237,43.916Z" transform="translate(14.515 18.413)" fill="#fff"/>
      <path id="Shape-6" data-name="Shape" d="M35,39.234v9.35a6.234,6.234,0,1,0,12.467,0v-9.35a6.234,6.234,0,0,0-12.467,0Zm9.35,0v9.35a3.117,3.117,0,1,1-6.234,0v-9.35a3.117,3.117,0,0,1,6.234,0Z" transform="translate(19.544 18.421)" fill="#fff"/>
    </g>
  </g>
</svg>
