<svg xmlns="http://www.w3.org/2000/svg" width="30.195" height="23" viewBox="0 0 30.195 23">
  <g id="virtual-glasses" transform="translate(0 -61)">
    <path id="Path_11533" data-name="Path 11533" d="M24.789,61.479a.889.889,0,0,0-.78-.479h-3.6a.885.885,0,1,0,0,1.769h2.713v7.077H7.077V62.769H9.79A.885.885,0,1,0,9.79,61h-3.6a.891.891,0,0,0-.786.479L.572,70.857A2.65,2.65,0,0,0,0,72.5v8.846A2.657,2.657,0,0,0,2.654,84h8.905a2.657,2.657,0,0,0,2.654-2.654.885.885,0,1,1,1.769,0A2.657,2.657,0,0,0,18.636,84h8.905a2.657,2.657,0,0,0,2.654-2.654V72.5a2.64,2.64,0,0,0-.573-1.644ZM1.769,72.5a.89.89,0,0,1,.885-.885H27.541a.888.888,0,0,1,.885.885v.885H16.867a.885.885,0,0,0-.885.885.885.885,0,0,1-1.769,0,.885.885,0,0,0-.885-.885H1.769Zm23.118-6.968,2.224,4.315H24.887Zm-21.8,4.315,2.224-4.315v4.315ZM27.541,82.231H18.636a.886.886,0,0,1-.885-.885,2.654,2.654,0,1,0-5.308,0,.886.886,0,0,1-.885.885H2.654a.886.886,0,0,1-.885-.885V75.154H12.6a2.654,2.654,0,0,0,5,0H28.426v6.192A.886.886,0,0,1,27.541,82.231Z" transform="translate(0 0)" fill="#002c5b"/>
  </g>
</svg>
