<?xml version="1.0" encoding="utf-8"?>
<!-- Generator: Adobe Illustrator 20.1.0, SVG Export Plug-In . SVG Version: 6.00 Build 0)  -->
<svg version="1.1" xmlns="http://www.w3.org/2000/svg" xmlns:xlink="http://www.w3.org/1999/xlink" x="0px" y="0px"
	 viewBox="0 0 1902.8 75" style="enable-background:new 0 0 1902.8 75;" xml:space="preserve">
<path class="color_1" d="M787.4,59.4c72.4,5.3,129.4-1.6,168.6-9.1c57-10.9,83.9-24.6,157.2-36.5c47.1-7.7,82.6-9.6,114.3-11.3
	c28.7-1.5,140.3-6.4,291.4,14.8c59.9,8.4,136.8,22.4,225,47c-318.9,3.6-637.7,7.1-956.6,10.7C787.4,69.8,787.4,64.6,787.4,59.4z"/>
<path class="color_2" d="M0,40.7c75.6-10.6,140.6-17.1,191.5-21.3c45.5-3.8,92.8-7.6,156.5-9c47.3-1,82.6-0.3,141,1c58.5,1.3,87.8,1.9,128,5
	c58.2,4.5,105.8,11.2,118,13c42.8,6.2,54.5,9.4,98,15c30.3,3.9,55.1,6.2,84.5,8.7c112.8,9.3,192.2,15.9,297.5,16
	c57.3,0.1,110.6-1.8,132.7-2.6c9.2-0.3,11.3-0.4,110.3-4.9c73.5-3.3,79.6-3.6,92.3-4.5c54.9-4,94.7-10.2,116.7-13.5
	c49-7.3,124.4-16.9,236.3-26.2c-0.2,19.2-0.3,38.4-0.5,57.7C1268.5,75,634.3,75,0,75C0,63.6,0,52.1,0,40.7z"/>
</svg>
