<?xml version="1.0" encoding="UTF-8"?>
<svg width="30px" height="35px" viewBox="0 0 30 35" version="1.1" xmlns="http://www.w3.org/2000/svg" xmlns:xlink="http://www.w3.org/1999/xlink">
    <title>apple</title>
    <g id="Page-1" stroke="none" stroke-width="1" fill="none" fill-rule="evenodd" opacity="0.200000003">
        <g id="5275_BigBreak-Software-podcast-page-_V3" transform="translate(-737.000000, -679.000000)" fill="#333333" fill-rule="nonzero">
            <g id="Group-13" transform="translate(302.000000, 679.000000)">
                <g id="apple" transform="translate(435.340000, 0.000000)">
                    <path d="M15.6151303,3.09065246 C17.8838125,0.0983372667 21.0378229,0.0837491909 21.0378229,0.0837491909 C21.0378229,0.0837491909 21.5069766,2.89703407 19.2531558,5.60712392 C16.8466374,8.50089865 14.1112974,8.02738219 14.1112974,8.02738219 C14.1112974,8.02738219 13.5976732,5.75152884 15.6151303,3.09065246 Z M14.3998459,9.99807797 C15.5669727,9.99807797 17.7331002,8.39259495 20.5526167,8.39259495 C25.4059265,8.39259495 27.3152135,11.8484931 27.3152135,11.8484931 C27.3152135,11.8484931 23.5809863,13.7590769 23.5809863,18.3950198 C23.5809863,23.6247599 28.232817,25.4270968 28.232817,25.4270968 C28.232817,25.4270968 24.9810166,34.5861946 20.5887491,34.5861946 C18.5714053,34.5861946 17.003022,33.2257572 14.8774513,33.2257572 C12.7113238,33.2257572 10.5617594,34.6369407 9.16172913,34.6369407 C5.15092192,34.6369407 0.0838808511,25.9486914 0.0838808511,18.9646927 C0.0838808511,12.0934252 4.37279958,8.4888649 8.39563199,8.4888649 C11.0108333,8.4888649 13.0402589,9.99807797 14.3998459,9.99807797 Z" id="Shape"></path>
                </g>
            </g>
        </g>
    </g>
</svg>