<?xml version="1.0" encoding="UTF-8"?>
<svg width="51px" height="34px" viewBox="0 0 51 34" version="1.1" xmlns="http://www.w3.org/2000/svg" xmlns:xlink="http://www.w3.org/1999/xlink">
    <title>youtube-3</title>
    <g id="Page-1" stroke="none" stroke-width="1" fill="none" fill-rule="evenodd">
        <g id="5275_BigBreak-Software-podcast-page-_V3" transform="translate(-536.000000, -679.000000)" fill="#C7CED3" fill-rule="nonzero">
            <g id="Group-13" transform="translate(302.000000, 679.000000)">
                <g id="youtube-3" transform="translate(234.670000, 0.000000)">
                    <path d="M25.7161044,33.955457 L15.6119135,33.7710322 C12.3403999,33.7067667 9.06074439,33.8350515 5.85337804,33.1692511 C0.97423365,32.1744901 0.628578245,27.2969605 0.266886009,23.2056368 C-0.231489379,17.4537517 -0.0385539565,11.5974659 0.901944547,5.89359527 C1.43288704,2.69312427 3.52236286,0.783380231 6.7536611,0.575563834 C17.6616674,-0.178632401 28.6422094,-0.0892516521 39.5260371,0.2626081 C40.6755078,0.294863962 41.8328737,0.47116318 42.9663076,0.671838966 C48.5611881,1.6505951 48.6976245,7.1779203 49.0603037,11.83089 C49.4219959,16.5318742 49.2692759,21.2569887 48.5779651,25.9259632 C48.0233374,29.7917422 46.9621926,33.0335795 42.483969,33.3465352 C36.8730517,33.7557661 31.3909224,34.0852191 25.7642149,33.980326 C25.7644617,33.955457 25.7321413,33.955457 25.7161044,33.955457 Z M19.7758152,24.1683881 C24.004111,21.745505 28.1517291,19.3630033 32.3558462,16.9563712 C28.1196554,14.5334881 23.9799324,12.1509864 19.7758152,9.74435431 L19.7758152,24.1683881 Z" id="Shape"></path>
                </g>
            </g>
        </g>
    </g>
</svg>