<?xml version="1.0" encoding="utf-8"?>
<!-- Generator: Adobe Illustrator 24.1.1, SVG Export Plug-In . SVG Version: 6.00 Build 0)  -->
<svg version="1.1" id="Layer_1" xmlns="http://www.w3.org/2000/svg" xmlns:xlink="http://www.w3.org/1999/xlink" x="0px" y="0px"
	 viewBox="0 0 30 35" style="enable-background:new 0 0 30 35;" xml:space="preserve">
<style type="text/css">
	.st0{fill:#55A6D8;}
</style>
<g id="Page-1">
	<g id="_x35_275_x5F_BigBreak-Software-podcast-page-_x5F_V3" transform="translate(-737.000000, -679.000000)">
		<g id="Group-13" transform="translate(302.000000, 679.000000)">
			<g id="apple" transform="translate(435.340000, 0.000000)">
				<path id="Shape" class="st0" d="M15.6,3.1c2.3-3,5.4-3,5.4-3s0.5,2.8-1.8,5.5C16.8,8.5,14.1,8,14.1,8S13.6,5.8,15.6,3.1z
					 M14.4,10c1.2,0,3.3-1.6,6.2-1.6c4.9,0,6.8,3.5,6.8,3.5s-3.7,1.9-3.7,6.5c0,5.2,4.7,7,4.7,7s-3.3,9.2-7.6,9.2
					c-2,0-3.6-1.4-5.7-1.4c-2.2,0-4.3,1.4-5.7,1.4c-4,0-9.1-8.7-9.1-15.7c0-6.9,4.3-10.5,8.3-10.5C11,8.5,13,10,14.4,10z"/>
			</g>
		</g>
	</g>
</g>
</svg>
