<svg xmlns="http://www.w3.org/2000/svg" viewBox="0 0 518.95 122.23"><defs><style>.cls-1{fill:#7b7b7b;}.cls-2{fill:#2aa4dd;}.cls-3{fill:#6c6d6c;}</style></defs><title>logo</title><g id="Layer_2" data-name="Layer 2"><g id="TEMPLATE_delete_" data-name="TEMPLATE (delete)"><path class="cls-1" d="M173.68,97.8h8.95c7.55,0,12.77,5.18,12.77,11.94v.07c0,6.76-5.22,12-12.77,12h-8.95Zm4.22,3.84V118h4.73c5.05,0,8.34-3.39,8.34-8.1v-.06c0-4.71-3.29-8.17-8.34-8.17Z"/><path class="cls-1" d="M215.27,97.8h17.81v3.77H219.49v6.25h12v3.77h-12V118h13.76v3.78h-18Z"/><path class="cls-1" d="M251,97.8h4.67l7.24,18.46,7.2-18.46h4.57l-10,24.19H261Z"/><path class="cls-1" d="M291.06,118.31l2.53-3a11.12,11.12,0,0,0,7.59,3.12c2.6,0,4.25-1.24,4.25-3v-.07c0-1.71-1-2.64-5.42-3.67-5.11-1.24-8-2.75-8-7.17v-.07c0-4.12,3.44-7,8.21-7a13.32,13.32,0,0,1,8.71,3l-2.26,3.19a10.94,10.94,0,0,0-6.52-2.47c-2.47,0-3.92,1.27-3.92,2.85v.07c0,1.85,1.1,2.68,5.73,3.77,5.08,1.24,7.69,3.06,7.69,7V115c0,4.49-3.53,7.17-8.57,7.17A14.74,14.74,0,0,1,291.06,118.31Z"/><path class="cls-1" d="M329.39,97.8h4.22v10h11.46v-10h4.22v24h-4.22V111.69H333.61v10.13h-4.22Z"/><path class="cls-1" d="M369.17,109.87v-.06a12.56,12.56,0,0,1,25.12-.07v.07a12.56,12.56,0,0,1-25.12.06Zm20.69,0v-.06a8.23,8.23,0,0,0-8.16-8.55c-4.77,0-8.1,3.81-8.1,8.48v.07a8.2,8.2,0,0,0,8.17,8.5C386.53,118.31,389.86,114.54,389.86,109.87Z"/><path class="cls-1" d="M414.16,97.8h9.47c5.63,0,9.13,3.19,9.13,8v.07c0,5.38-4.32,8.2-9.61,8.2h-4.77v7.72h-4.22Zm9.13,12.49c3.19,0,5.18-1.79,5.18-4.29v-.07c0-2.81-2-4.29-5.18-4.29h-4.91v8.65Z"/><path class="cls-2" d="M270.1,95.11q-18.23,0-29.4-12.69l9.67-12.81q8.92,9,19.73,9a11.08,11.08,0,0,0,6.09-1.5,4.61,4.61,0,0,0,2.33-4c0-2-1.43-3.69-4.27-5-.93-.42-3.65-1.42-8.17-3q-7.29-2.76-8.92-3.52-12.32-5.89-12.32-18.21A18.58,18.58,0,0,1,252.13,28q7.41-5.91,19.6-5.91,15,0,24.88,9.55l-9.17,12.82q-7.8-6.42-16.08-6.41a8.87,8.87,0,0,0-5.22,1.38A4.17,4.17,0,0,0,264.19,43c0,2.51,2.06,4.44,6.16,5.78q11.56,3.77,16.34,6.28,11.69,6.28,11.68,17.59a20,20,0,0,1-7.79,16.08Q282.92,95.12,270.1,95.11Z"/><path class="cls-2" d="M354.53,73.63l5.53,15.7Q351.27,95,339,95q-24.63,0-24.62-27.77V40.71H303.4V24.37h11.05V0h19.6V24.37h22.12V40.71H334.05V65.33q0,11.7,9.18,11.69Q348,77,354.53,73.63Z"/><path class="cls-2" d="M400.65,95.11q-16.33,0-26.77-10.43T363.58,58.8q0-15.45,10.3-25.76,10.44-10.54,26.77-10.55,16.58,0,26.88,10.55T438,58.8a35.64,35.64,0,0,1-10.43,25.88Q417.11,95.12,400.65,95.11Zm17.59-36.43a17.12,17.12,0,0,0-5.15-12.57,17.29,17.29,0,0,0-24.88,0,17.06,17.06,0,0,0-5,12.57,17.8,17.8,0,0,0,5,12.94,17.6,17.6,0,0,0,24.88,0A18.11,18.11,0,0,0,418.24,58.68Z"/><path class="cls-3" d="M37.06,95.11q-16.33,0-26.76-10.43T0,58.8Q0,43.35,10.3,33,20.73,22.5,37.06,22.49,53.65,22.49,64,33T74.38,58.8A35.68,35.68,0,0,1,64,84.68Q53.53,95.12,37.06,95.11ZM54.65,58.68A17.08,17.08,0,0,0,49.5,46.11a16.74,16.74,0,0,0-12.44-5.28,16.72,16.72,0,0,0-12.43,5.28,17,17,0,0,0-5,12.57,17.76,17.76,0,0,0,5,12.94,16.93,16.93,0,0,0,12.43,5.15A17,17,0,0,0,49.5,71.62,18.07,18.07,0,0,0,54.65,58.68Z"/><path class="cls-2" d="M485.16,22.62a31.53,31.53,0,0,1,24.25,10.55q9.54,10.3,9.54,25.51a37,37,0,0,1-9.67,25.75A31.13,31.13,0,0,1,485.16,95a27.58,27.58,0,0,1-20.74-8.8v35.43H444.7V24.37h19.47V32A27,27,0,0,1,485.16,22.62ZM499,58.8a17.76,17.76,0,0,0-4.9-12.69,17.45,17.45,0,0,0-25,0,17.76,17.76,0,0,0-4.9,12.69,18.13,18.13,0,0,0,4.9,12.88,16.33,16.33,0,0,0,12.44,5.21A16.54,16.54,0,0,0,494,71.68,18,18,0,0,0,499,58.8Z"/><polygon class="cls-2" points="74.52 40.15 87.51 40.15 87.51 86.45 81.38 86.45 81.38 93.16 115.28 93.16 115.28 86.24 109.79 86.24 109.79 19.45 88.59 19.45 74.52 40.15"/><path class="cls-3" d="M151.45,29.9a26.53,26.53,0,0,0-19-7.41,27,27,0,0,0-13.13,3.2,23.86,23.86,0,0,0-5.47,4.08V47A14.78,14.78,0,0,1,115.32,45a13.9,13.9,0,0,1,10.75-4.46,12.38,12.38,0,0,1,9.8,4.15q3.63,4.14,3.64,11.56v65.65h19.73V51.14Q159.24,37.31,151.45,29.9Z"/><path class="cls-3" d="M234.67,57.17a74.3,74.3,0,0,1-.63,8.29H183.4q3.53,12.95,18.73,12.94a37.82,37.82,0,0,0,21.48-6.66l7.79,13.45q-12.57,9.54-30.15,9.54-18.23,0-28-10.42t-9.68-25.63q0-15.47,10.06-25.76t26.26-10.3q15.07,0,25,9.29T234.67,57.17ZM210.1,42a15.77,15.77,0,0,0-10.23-3.39A16.86,16.86,0,0,0,189.37,42a17.07,17.07,0,0,0-6.09,9.43H215.7A16.42,16.42,0,0,0,210.1,42Z"/></g></g></svg>